Hanif_Deep_2_5_grf.mot
version=1
nRows=64
nColumns=19
inDegrees=yes
endheader
time	right_ground_force_vx	right_ground_force_vy	right_ground_force_vz	right_ground_force_px	right_ground_force_py	right_ground_force_pz	right_ground_torque_x	right_ground_torque_y	right_ground_torque_z	left_ground_force_vx	left_ground_force_vy	left_ground_force_vz	left_ground_force_px	left_ground_force_py	left_ground_force_pz	left_ground_torque_x	left_ground_torque_y	left_ground_torque_z
0.000000	-1.394490	266.556000	58.935100	0.191412	0.000000	-1.449110	-15.165700	0.715172	-2.225340	0.687752	276.254000	-59.894800	0.208833	0.000000	-0.945738	11.798100	-2.837980	3.163900
0.005000	-1.392220	266.635000	58.627500	0.190908	0.000000	-1.449240	-15.134600	0.658590	-2.379260	0.401122	273.843000	-59.371700	0.208331	0.000000	-0.945661	11.677400	-2.913950	3.016760
0.010000	-1.423890	268.616000	59.368000	0.192489	0.000000	-1.448840	-15.354600	0.526623	-1.981880	0.615563	274.761000	-59.968500	0.208160	0.000000	-0.945993	11.805200	-2.918680	2.980180
0.015000	-1.067700	268.522000	58.894200	0.192097	0.000000	-1.449770	-15.098600	0.538311	-2.093060	0.636205	273.839000	-59.989100	0.208195	0.000000	-0.945230	11.556500	-2.899850	2.981270
0.020000	-1.013180	268.803000	58.805800	0.193120	0.000000	-1.448550	-15.443900	0.757162	-1.759600	0.737541	272.745000	-59.659700	0.207342	0.000000	-0.946012	11.722000	-3.035790	2.755490
0.025000	-1.270580	269.475000	58.776800	0.193200	0.000000	-1.448710	-15.439600	0.564176	-1.780610	1.008060	273.426000	-59.562000	0.207126	0.000000	-0.945757	11.678500	-2.985670	2.681760
0.030000	-1.629870	269.938000	58.248000	0.194753	0.000000	-1.447190	-15.876200	0.577411	-1.337060	1.125020	271.942000	-59.744600	0.207271	0.000000	-0.944979	11.401800	-3.008700	2.723240
0.035000	-1.621070	270.975000	58.437600	0.194156	0.000000	-1.448460	-15.593800	0.599092	-1.508050	1.677070	273.051000	-59.437500	0.206528	0.000000	-0.945123	11.481600	-2.976620	2.499560
0.040000	-1.287590	270.090000	58.441000	0.194357	0.000000	-1.447710	-15.745200	0.474590	-1.476420	1.621490	271.928000	-59.745100	0.206380	0.000000	-0.944817	11.351400	-3.014580	2.466000
0.045000	-1.641820	271.439000	58.346100	0.195203	0.000000	-1.447560	-15.865200	0.377827	-1.260490	2.028280	272.005000	-59.502200	0.205962	0.000000	-0.944763	11.335200	-3.014690	2.340290
0.050000	-1.721730	270.953000	58.502800	0.195812	0.000000	-1.447700	-15.797300	0.422705	-1.074780	1.287360	270.536000	-59.808300	0.206015	0.000000	-0.944736	11.275200	-3.018710	2.362200
0.055000	-2.346520	271.843000	58.250600	0.195925	0.000000	-1.448090	-15.744800	0.389805	-1.046070	1.643970	271.903000	-59.514300	0.204863	0.000000	-0.944810	11.348200	-3.088150	2.046620
0.060000	-2.025020	269.666000	58.331200	0.197235	0.000000	-1.446220	-16.122800	0.406504	-0.666421	1.613750	270.917000	-59.416500	0.205405	0.000000	-0.943708	11.008900	-3.034200	2.185670
0.065000	-2.282050	271.805000	58.741900	0.196303	0.000000	-1.446270	-16.238100	0.445259	-0.926182	1.852350	271.170000	-59.411200	0.205244	0.000000	-0.943657	11.002100	-3.099890	2.152930
0.070000	-2.261750	272.140000	58.433300	0.197204	0.000000	-1.446040	-16.320100	0.284814	-0.705682	1.370100	270.699000	-59.607200	0.205315	0.000000	-0.943376	10.912800	-3.062720	2.170780
0.075000	-2.257040	271.710000	57.922800	0.198128	0.000000	-1.446380	-16.201300	0.375030	-0.422986	1.586710	268.992000	-59.455600	0.205101	0.000000	-0.944354	11.104100	-3.113150	2.112640
0.080000	-2.381040	271.711000	58.142900	0.197462	0.000000	-1.447390	-15.926500	0.202436	-0.647992	0.893291	269.871000	-59.003100	0.204157	0.000000	-0.943535	10.928200	-3.140210	1.854090
0.085000	-2.781620	271.342000	58.436600	0.198318	0.000000	-1.446110	-16.254100	0.220138	-0.394300	1.109830	268.249000	-58.777300	0.204906	0.000000	-0.944274	11.057700	-3.146960	2.058690
0.090000	-2.782150	269.671000	58.624600	0.198223	0.000000	-1.446310	-16.099100	0.136320	-0.435986	0.845215	268.171000	-58.481200	0.205630	0.000000	-0.944345	11.076800	-3.101190	2.250350
0.095000	-2.710780	269.764000	58.464200	0.199395	0.000000	-1.445840	-16.230900	0.071226	-0.119954	1.015480	267.842000	-58.505300	0.205191	0.000000	-0.944837	11.193200	-3.049590	2.113590
0.100000	-3.157380	269.244000	58.616200	0.199615	0.000000	-1.444970	-16.434100	0.071591	-0.051020	0.825401	266.408000	-58.805300	0.204944	0.000000	-0.944532	11.053900	-3.182720	2.076390
0.105000	-2.594830	269.738000	58.923200	0.200289	0.000000	-1.444620	-16.559800	0.085312	0.135089	0.684904	266.408000	-58.539300	0.204406	0.000000	-0.944296	10.992900	-3.116990	1.909240
0.110000	-2.696900	271.470000	59.423200	0.200154	0.000000	-1.445640	-16.387300	0.059643	0.092587	1.039100	263.927000	-57.763700	0.205188	0.000000	-0.944060	10.823100	-3.262570	2.139520
0.115000	-2.702240	271.815000	59.327800	0.201006	0.000000	-1.444120	-16.821100	-0.030028	0.316497	1.537550	263.598000	-58.237100	0.204921	0.000000	-0.943719	10.713600	-3.187610	2.050930
0.120000	-3.058900	273.316000	59.242500	0.201175	0.000000	-1.445750	-16.468400	-0.117464	0.350683	1.189670	264.977000	-58.036400	0.204745	0.000000	-0.943977	10.842600	-3.195260	2.006760
0.125000	-2.709210	273.719000	59.481800	0.201704	0.000000	-1.444690	-16.785000	-0.058331	0.511749	1.376320	263.495000	-58.126800	0.204057	0.000000	-0.943819	10.737500	-3.271740	1.830280
0.130000	-2.721120	274.056000	58.659200	0.201344	0.000000	-1.444120	-16.960700	-0.097244	0.400435	1.376780	265.978000	-57.707400	0.204293	0.000000	-0.944022	10.893500	-3.196200	1.876920
0.135000	-2.630460	274.136000	59.259500	0.201629	0.000000	-1.445100	-16.697400	-0.059993	0.489223	0.876002	266.418000	-57.923700	0.204905	0.000000	-0.943675	10.825000	-3.236170	2.064460
0.140000	-2.387900	274.552000	59.938000	0.202280	0.000000	-1.444120	-16.993000	0.003269	0.688888	1.459310	263.934000	-58.216700	0.204357	0.000000	-0.944348	10.894200	-3.244790	1.908200
0.145000	-1.816070	273.856000	59.659100	0.201928	0.000000	-1.443940	-16.995200	-0.111544	0.553310	0.768908	263.799000	-57.654600	0.204097	0.000000	-0.944817	11.021400	-3.249090	1.835390
0.150000	-2.600710	275.307000	60.050600	0.201958	0.000000	-1.444050	-17.058100	0.014905	0.603233	1.034070	264.287000	-57.670700	0.204992	0.000000	-0.944032	10.830800	-3.209710	2.073260
0.155000	-2.436540	276.702000	59.972200	0.202015	0.000000	-1.444520	-17.014200	-0.002185	0.615762	0.348286	261.615000	-57.537200	0.204862	0.000000	-0.944241	10.784700	-3.162190	2.025800
0.160000	-2.168740	276.094000	59.958500	0.202015	0.000000	-1.444900	-16.872700	0.038136	0.619547	0.226112	262.875000	-57.515100	0.205018	0.000000	-0.944750	10.971900	-3.260000	2.093400
0.165000	-2.322990	278.445000	60.130500	0.202015	0.000000	-1.444880	-17.021900	-0.000541	0.617852	0.258694	263.346000	-56.858000	0.204948	0.000000	-0.944954	11.045100	-3.170670	2.045920
0.170000	-2.765150	279.945000	60.089200	0.201059	0.000000	-1.444110	-17.328900	-0.041608	0.337832	0.070995	263.963000	-57.321900	0.205287	0.000000	-0.944012	10.824600	-3.291450	2.175550
0.175000	-2.187860	278.474000	60.013400	0.201691	0.000000	-1.444200	-17.212300	-0.056415	0.509616	-0.195630	262.629000	-56.805500	0.204105	0.000000	-0.944477	10.895800	-3.311360	1.846650
0.180000	-2.071550	278.512000	60.250700	0.201924	0.000000	-1.444310	-17.184300	-0.000603	0.588394	0.346871	263.976000	-56.610300	0.204514	0.000000	-0.944292	10.895500	-3.265720	1.943720
0.185000	-1.649610	278.235000	60.441300	0.202631	0.000000	-1.443490	-17.394400	-0.096797	0.767974	-0.091448	265.802000	-56.508600	0.205057	0.000000	-0.944354	10.993300	-3.311400	2.109780
0.190000	-2.090010	279.698000	59.903100	0.201679	0.000000	-1.444070	-17.322400	-0.138659	0.489128	-0.275276	266.856000	-57.217500	0.204434	0.000000	-0.945100	11.238300	-3.339870	1.956130
0.195000	-2.159060	279.977000	60.753100	0.201939	0.000000	-1.443140	-17.602400	-0.023383	0.592801	-0.108641	266.174000	-56.486300	0.204537	0.000000	-0.944642	11.085500	-3.268480	1.956490
0.200000	-2.262200	280.350000	60.357400	0.202608	0.000000	-1.444370	-17.279600	-0.063823	0.781438	-0.290213	268.214000	-56.566500	0.203801	0.000000	-0.943775	10.940300	-3.309760	1.765400
0.205000	-1.671610	279.678000	59.881000	0.202527	0.000000	-1.444430	-17.221800	0.034510	0.768679	-0.302146	267.690000	-56.960700	0.203822	0.000000	-0.944462	11.103000	-3.255080	1.764740
0.210000	-2.268490	278.674000	59.810400	0.202648	0.000000	-1.444550	-17.124800	-0.102934	0.779684	-0.816467	267.613000	-57.156900	0.203709	0.000000	-0.944831	11.205600	-3.381130	1.767290
0.215000	-2.266200	278.924000	60.037400	0.201848	0.000000	-1.443920	-17.318000	-0.121554	0.543445	-0.254446	268.364000	-57.182600	0.203414	0.000000	-0.945622	11.441500	-3.345400	1.672850
0.220000	-2.002390	279.944000	59.771600	0.202962	0.000000	-1.444030	-17.350400	-0.144628	0.862627	-0.054559	265.986000	-57.021500	0.202677	0.000000	-0.944956	11.160500	-3.298730	1.452560
0.225000	-2.211900	278.089000	59.071300	0.201641	0.000000	-1.442970	-17.529700	-0.117667	0.481665	-0.416328	267.668000	-57.103800	0.202225	0.000000	-0.944851	11.207700	-3.412470	1.354490
0.230000	-2.141210	276.657000	59.126300	0.201674	0.000000	-1.442620	-17.535800	-0.083110	0.495432	-0.755600	268.637000	-57.265100	0.201912	0.000000	-0.944331	11.113000	-3.394740	1.267200
0.235000	-2.842680	278.788000	58.718800	0.201832	0.000000	-1.443370	-17.464400	-0.025078	0.565568	0.101903	269.785000	-57.305700	0.201240	0.000000	-0.944353	11.155000	-3.336860	1.057590
0.240000	-2.835500	276.365000	58.360400	0.202359	0.000000	-1.442670	-17.504800	-0.064287	0.705467	0.124505	269.678000	-57.035300	0.201474	0.000000	-0.944915	11.302000	-3.359530	1.124690
0.245000	-2.396510	275.239000	58.244700	0.201819	0.000000	-1.442800	-17.396600	-0.132745	0.526927	0.032271	270.484000	-57.227100	0.200451	0.000000	-0.944078	11.110700	-3.479450	0.863375
0.250000	-2.661970	276.297000	57.606700	0.201724	0.000000	-1.442750	-17.478300	-0.073554	0.516949	-0.295152	271.850000	-56.777900	0.200738	0.000000	-0.945013	11.425200	-3.536850	0.950641
0.255000	-1.803950	274.735000	56.847600	0.201592	0.000000	-1.442490	-17.448700	-0.036705	0.472156	0.585653	270.518000	-56.968400	0.199680	0.000000	-0.945267	11.426400	-3.515980	0.644855
0.260000	-1.984580	272.794000	56.572500	0.201069	0.000000	-1.442110	-17.430100	0.065912	0.344123	0.584319	271.904000	-57.220200	0.199981	0.000000	-0.945105	11.441200	-3.467310	0.719022
0.265000	-2.174860	271.406000	55.603300	0.202303	0.000000	-1.442300	-17.289900	0.001704	0.680099	1.197430	271.986000	-57.003600	0.199055	0.000000	-0.945825	11.632700	-3.560160	0.466948
0.270000	-2.194570	269.406000	54.930100	0.201214	0.000000	-1.441880	-17.277100	-0.014254	0.366446	1.306460	274.434000	-56.903000	0.199422	0.000000	-0.945464	11.636800	-3.617750	0.573289
0.275000	-2.709100	265.920000	54.465900	0.201705	0.000000	-1.441510	-17.150900	-0.044860	0.498903	1.818030	274.873000	-56.866600	0.199361	0.000000	-0.945892	11.767200	-3.525550	0.530165
0.280000	-2.826810	262.140000	53.052500	0.201813	0.000000	-1.441030	-17.035000	-0.042353	0.523366	1.817390	274.189000	-57.024900	0.198697	0.000000	-0.945598	11.656500	-3.669930	0.374351
0.285000	-2.592710	260.970000	52.202500	0.202029	0.000000	-1.440870	-16.998900	-0.008173	0.582963	2.459640	274.531000	-57.234100	0.198638	0.000000	-0.946806	11.996200	-3.510350	0.319085
0.290000	-2.776330	259.468000	51.216900	0.202701	0.000000	-1.440610	-16.968700	-0.045707	0.755006	2.360080	274.515000	-57.235900	0.198665	0.000000	-0.947147	12.089900	-3.576680	0.341489
0.295000	-3.089940	257.579000	50.007000	0.201450	0.000000	-1.439610	-17.103500	-0.142484	0.399784	2.448500	277.378000	-56.426700	0.198863	0.000000	-0.945777	11.834900	-3.635550	0.389761
0.300000	-3.746860	253.508000	48.331000	0.202734	0.000000	-1.437800	-17.293200	-0.196590	0.729451	2.039340	274.591000	-56.580700	0.198459	0.000000	-0.947090	12.082100	-3.493560	0.260188
0.305000	-3.959560	252.384000	47.766000	0.202722	0.000000	-1.439130	-16.879300	-0.240445	0.716319	1.940600	276.721000	-56.049900	0.198365	0.000000	-0.947494	12.289300	-3.486350	0.217754
0.310000	-4.854620	250.137000	46.770800	0.204636	0.000000	-1.437320	-17.182700	-0.371812	1.193010	1.886030	276.349000	-55.582500	0.198735	0.000000	-0.947410	12.250700	-3.366930	0.296558
0.315000	-5.264750	246.732000	45.046100	0.204656	0.000000	-1.437830	-16.821000	-0.454227	1.169590	1.338090	275.675000	-54.836000	0.198969	0.000000	-0.947895	12.360900	-3.307610	0.350479
